<?xml version="1.0" encoding="UTF-8"?><svg id="Layer_1" xmlns="http://www.w3.org/2000/svg" xmlns:xlink="http://www.w3.org/1999/xlink" viewBox="0 0 375 375"><defs><clipPath id="clippath"><rect width="375" height="375" fill="none"/></clipPath></defs><rect width="375" height="375" fill="#fff"/><path d="M76.04,186.78c0-11.14,8.21-19.8,19.94-19.8,4.11,0,7.62,1.1,10.41,3.23v8.43c-4.03-3.45-7.19-4.69-10.41-4.69-6.31,0-11.8,4.99-11.8,12.68s5.43,12.39,11.66,12.39c3.89,0,7.85-1.17,10.85-4.03l-.88,7.7c-2.13,1.69-5.57,3.3-10.48,3.3-11,0-19.28-7.99-19.28-19.21Z"/><path d="M124.35,205.99c-6.82,0-11.58-4.69-11.58-10.78s5.06-10.04,11.14-11.51c2.57-.59,7.77-1.47,11.66-1.98v-.15c0-5.43-3.45-8.06-8.14-8.06-5.35,0-9.82,2.64-13.78,6.23l1.32-7.7c1.98-2.13,6.82-5.06,13.2-5.06,8.21,0,14.88,4.69,14.88,14v24.12h-7.48v-5.79c-2.27,4.11-6.23,6.67-11.22,6.67ZM126.26,200.05c4.69,0,9.31-4.11,9.31-9.24v-3.81c-2.93.44-7.26,1.25-9.02,1.69-3.74,1.03-6.23,3.08-6.23,6.09,0,3.45,2.64,5.28,5.94,5.28Z"/><path d="M151.55,201.15l.07-8.65c2.57,3.59,8.06,7.11,13.05,7.11,3.52,0,6.16-1.91,6.16-4.55s-2.57-4.11-7.11-5.72c-7.77-2.79-12.32-5.94-12.32-11.58,0-6.75,6.53-10.78,13.34-10.78,4.62,0,9.53,1.69,12.02,3.96l.73,8.29c-3.15-3.23-7.92-5.87-12.76-5.87-3.52,0-5.5,1.76-5.5,3.96,0,2.49,2.42,3.89,7.62,5.79,5.57,1.83,11.66,4.4,11.66,11.36s-6.09,11.51-13.86,11.51c-5.21,0-10.48-2.2-13.12-4.84Z"/><path d="M183.95,186.56c0-11.14,7.04-19.58,18.84-19.58,9.31,0,15.91,6.89,16.2,14.96v6.6h-26.91c.37,5.79,4.18,10.63,12.02,10.63,4.69,0,8.8-1.69,12.24-4.18l-.88,7.7c-2.57,1.91-6.96,3.3-11.66,3.3-12.46,0-19.87-8.29-19.87-19.43ZM211.67,182.75v-.37c0-5.13-3.81-8.87-9.17-8.87-6.08,0-9.82,3.96-10.34,9.24h19.5Z"/><path d="M226.99,151.88h31.53v7.33h-23.24v16.5h18.84v7.41h-18.84v22h-8.29v-53.23Z"/><path d="M264.46,155.84c0-2.93,2.2-5.06,5.13-5.06s5.06,2.13,5.06,5.06-2.2,5.06-5.06,5.06-5.13-2.13-5.13-5.06ZM265.48,167.87h8.14v37.25h-8.14v-37.25Z"/><path d="M288.21,192.14v-17.45h-8.21v-6.82h8.21v-10.04l7.99-5.28v15.32h11.8v6.82h-11.8v16.57c0,4.25.95,7.48,5.13,7.48,1.32,0,3.3-.29,7.26-1.1l-2.57,7.19c-1.61.44-3.81.73-5.79.73-6.67,0-12.02-3.89-12.02-13.42Z"/><g clip-path="url(#clippath)"><path d="M166.36,138.04c-12.89,0-23.34-10.45-23.34-23.33s10.45-23.33,23.34-23.33h4.08v8.15h-4.08c-8.38,0-15.18,6.8-15.18,15.18s6.8,15.18,15.18,15.18,15.18-6.8,15.18-15.18v-4.08h8.16v4.08c-.01,12.88-10.45,23.32-23.33,23.33"/><path d="M192.84,138.04h-4.08v-8.16h4.08c8.38,0,15.18-6.8,15.18-15.18s-6.8-15.18-15.18-15.18-15.18,6.8-15.18,15.18v4.08h-8.16v-4.08c0-12.89,10.45-23.33,23.34-23.33s23.33,10.45,23.33,23.33-10.45,23.33-23.33,23.33"/></g></svg>